<svg xmlns="http://www.w3.org/2000/svg" width="124" height="79" viewBox="0 0 124 79"><path fill="#fff" d="M13.69 78.60L13.69 78.60Q11.36 78.60 7.18 78.32L7.18 78.32L7.18 67.58Q9.41 68.24 15.22 68.24Q21.04 68.24 25.02 66.63Q29.00 65.02 31.67 61.51L31.67 61.51Q37.07 54.44 37.07 38.85L37.07 38.85L37.07 10.41L8.52 10.41L8.52 0.56L48.21 0.56L48.21 38.85Q48.21 69.02 29.22 76.15L29.22 76.15Q22.71 78.60 13.69 78.60ZM123.69 40.19L123.69 77.26Q117.28 78.93 106.79 78.93Q96.30 78.93 88.81 76.32Q81.33 73.70 75.93 68.58L75.93 68.58Q64.35 57.78 64.35 38.52L64.35 38.52Q64.35 25.94 70.36 16.81L70.36 16.81Q78.49 4.40 95.35 1.00L95.35 1.00Q100.53 0 108.04 0Q115.56 0 121.01 0.72L121.01 0.72L121.01 11.41Q116.23 10.19 107.35 10.19Q98.47 10.19 92.79 12.19Q87.11 14.19 83.38 17.92L83.38 17.92Q75.93 25.22 75.93 38.52L75.93 38.52Q75.93 52.05 83.27 60.17L83.27 60.17Q91.29 69.02 106.15 69.02L106.15 69.02Q109.60 69.02 112.55 68.75L112.55 68.75L112.55 40.19L123.69 40.19Z"></path></svg>