<svg width="511" height="83" viewBox="0 0 511 83" fill="none" xmlns="http://www.w3.org/2000/svg">
<path d="M6.51 81.6C4.95667 81.6 2.78667 81.5067 0 81.32V70.58C1.48667 71.02 4.16667 71.24 8.04 71.24C11.92 71.24 15.1867 70.7033 17.84 69.63C20.4933 68.5567 22.71 66.85 24.49 64.51C28.09 59.7967 29.89 52.2433 29.89 41.85V13.41H1.34V3.56H41.03V41.85C41.03 61.9633 34.7 74.3967 22.04 79.15C17.7 80.7833 12.5233 81.6 6.51 81.6ZM116.51 43.19V80.26C112.237 81.3733 106.603 81.93 99.61 81.93C92.6167 81.93 86.6233 81.06 81.63 79.32C76.6433 77.5733 72.35 74.9933 68.75 71.58C61.03 64.38 57.17 54.36 57.17 41.52C57.17 33.1333 59.1733 25.8967 63.18 19.81C68.6 11.5367 76.93 6.26667 88.17 4C91.6233 3.33333 95.8533 3 100.86 3C105.873 3 110.197 3.24 113.83 3.72V14.41C110.643 13.5967 106.09 13.19 100.17 13.19C94.25 13.19 89.3967 13.8567 85.61 15.19C81.8233 16.5233 78.6867 18.4333 76.2 20.92C71.2333 25.7867 68.75 32.6533 68.75 41.52C68.75 50.54 71.1967 57.7567 76.09 63.17C81.4367 69.07 89.0633 72.02 98.97 72.02C101.27 72.02 103.403 71.93 105.37 71.75V43.19H116.51Z" fill="white"/>
<path d="M131.207 44.293C130.387 44.293 129.244 44.2441 127.779 44.1465V38.4922C128.561 38.7266 129.967 38.8438 131.998 38.8438C134.049 38.8438 135.768 38.5605 137.154 37.9941C138.561 37.4277 139.732 36.5293 140.67 35.2988C142.564 32.8184 143.512 28.8438 143.512 23.375V8.4043H128.482V3.21875H149.371V23.375C149.371 33.9609 146.041 40.5039 139.381 43.0039C137.096 43.8633 134.371 44.293 131.207 44.293Z" fill="white"/>
<path d="M156.578 28.8242C156.578 24.0781 158.092 20.2305 161.119 17.2812C163.951 14.5273 167.457 13.1504 171.637 13.1504C175.738 13.1504 179.166 14.5273 181.92 17.2812C184.85 20.2109 186.314 24.0586 186.314 28.8242C186.314 33.5703 184.84 37.3984 181.891 40.3086C179.098 43.082 175.67 44.4688 171.607 44.4688C167.486 44.4688 163.99 43.082 161.119 40.3086C158.092 37.3984 156.578 33.5703 156.578 28.8242ZM162.672 28.8242C162.672 33.8242 164.273 37.2227 167.477 39.0195C168.609 39.6445 169.967 39.957 171.549 39.957C173.131 39.957 174.469 39.6445 175.562 39.0195C176.656 38.375 177.555 37.5352 178.258 36.5C179.566 34.5078 180.221 31.9492 180.221 28.8242C180.221 23.8633 178.648 20.4648 175.504 18.6289C174.41 17.9844 173.102 17.6621 171.578 17.6621C170.055 17.6621 168.727 17.9844 167.594 18.6289C166.48 19.2539 165.562 20.084 164.84 21.1191C163.395 23.1504 162.672 25.7188 162.672 28.8242Z" fill="white"/>
<path d="M200.934 44.4688C198.492 44.4688 196.021 44.293 193.521 43.9414V38.7559C196.061 39.3613 198.639 39.6641 201.256 39.6641C206.49 39.6641 209.107 38.5605 209.107 36.3535C209.107 35.5137 208.902 34.8887 208.492 34.4785C207.887 33.834 206.93 33.1895 205.621 32.5449L201.344 30.582C198.57 29.1953 196.773 28.082 195.953 27.2422C194.41 25.6797 193.639 23.8242 193.639 21.6758C193.639 19.2539 194.762 17.2812 197.008 15.7578C199.43 14.1172 202.828 13.2969 207.203 13.2969C209.41 13.2969 211.637 13.4531 213.883 13.7656V18.7754C211.422 18.3262 209.273 18.1016 207.438 18.1016C205.621 18.1016 204.205 18.2188 203.189 18.4531C202.193 18.6875 201.441 18.9805 200.934 19.332C200.133 19.8789 199.732 20.5918 199.732 21.4707C199.732 22.3301 200.006 23.0332 200.553 23.5801C201.119 24.1074 201.998 24.6836 203.189 25.3086L207.496 27.3887C210.309 28.8535 212.115 29.9766 212.916 30.7578C214.439 32.2422 215.201 34.1074 215.201 36.3535C215.201 38.7559 213.99 40.6895 211.568 42.1543C209.029 43.6973 205.484 44.4688 200.934 44.4688Z" fill="white"/>
<path d="M237.643 44.4688C226.588 44.4688 221.061 39.0684 221.061 28.2676C221.061 23.6191 222.594 19.8984 225.66 17.1055C228.414 14.5664 231.559 13.2969 235.094 13.2969C238.941 13.2969 241.949 14.5859 244.117 17.1641C246.129 19.5664 247.135 22.7793 247.135 26.8027V29.0879H227.154C227.154 34.6152 229.41 37.9941 233.922 39.2246C234.996 39.5176 236.646 39.6641 238.873 39.6641C241.119 39.6641 243.316 39.3613 245.465 38.7559V43.707C243.316 44.2148 240.709 44.4688 237.643 44.4688ZM241.275 24.7812C241.275 22.9062 240.758 21.3242 239.723 20.0352C238.512 18.5508 236.842 17.8086 234.713 17.8086C232.467 17.8086 230.641 18.5215 229.234 19.9473C227.945 21.2754 227.301 22.8867 227.301 24.7812H241.275Z" fill="white"/>
<path d="M284.137 43.5898C281.891 44.1758 278.922 44.4688 275.23 44.4688C271.559 44.4688 268.404 44.0098 265.768 43.0918C263.15 42.1738 260.895 40.8164 259 39.0195C254.938 35.2305 252.906 29.957 252.906 23.1992C252.906 18.7852 253.961 14.9766 256.07 11.7734C258.922 7.41797 263.307 4.64453 269.225 3.45312C271.041 3.10156 273.268 2.92578 275.904 2.92578C278.541 2.92578 280.816 3.05273 282.73 3.30664V8.93164C281.051 8.50195 278.648 8.28711 275.523 8.28711C272.418 8.28711 269.869 8.63867 267.877 9.3418C265.885 10.0449 264.234 11.0508 262.926 12.3594C260.309 14.918 259 18.5312 259 23.1992C259 27.9453 260.289 31.7441 262.867 34.5957C265.68 37.7012 269.693 39.2539 274.908 39.2539C276.119 39.2539 277.242 39.2051 278.277 39.1074V24.0781H284.137V43.5898Z" fill="white"/>
<path d="M313.316 36.5879V13.7656H319.176V44H313.902L313.375 40.8066C310.484 43.248 307.291 44.4688 303.795 44.4688C300.084 44.4688 297.457 43.4434 295.914 41.3926C294.312 39.3027 293.512 35.6992 293.512 30.582V13.7656H299.371V30.2891C299.371 33.9023 299.889 36.3633 300.924 37.6719C301.842 38.8438 303.59 39.4297 306.168 39.4297C308.766 39.4297 311.148 38.4824 313.316 36.5879Z" fill="white"/>
<path d="M345.836 55.543C344.137 55.9727 341.949 56.1875 339.273 56.1875C336.617 56.1875 334.674 55.9922 333.443 55.6016V50.3867C334.986 51.0508 336.871 51.3828 339.098 51.3828C341.344 51.4023 342.994 51.2559 344.049 50.9434C345.104 50.6309 345.934 50.123 346.539 49.4199C347.633 48.1504 348.18 45.8555 348.18 42.5352V40.9824C346.695 42.4668 344.742 43.502 342.32 44.0879C341.344 44.3223 340.367 44.4395 339.391 44.4395C338.414 44.4395 337.457 44.332 336.52 44.1172C335.602 43.9023 334.684 43.5605 333.766 43.0918C332.848 42.6035 331.969 41.9785 331.129 41.2168C330.289 40.4355 329.547 39.4688 328.902 38.3164C327.457 35.8164 326.734 32.7402 326.734 29.0879C326.695 25.709 327.672 22.7402 329.664 20.1816C331.383 17.9551 333.746 16.2266 336.754 14.9961C339.488 13.8633 342.447 13.2969 345.631 13.2969C348.814 13.2969 351.617 13.4531 354.039 13.7656V42.5352C354.039 49.8398 351.305 54.1758 345.836 55.543ZM348.18 18.043C346.93 17.8867 345.699 17.8086 344.488 17.8086C343.277 17.8086 341.92 18.0332 340.416 18.4824C338.912 18.9316 337.594 19.6152 336.461 20.5332C333.98 22.5449 332.74 25.3965 332.74 29.0879C332.74 33.0918 333.707 36.0117 335.641 37.8477C337.086 39.2344 338.854 39.9277 340.943 39.9277C343.463 39.9277 345.582 39.0391 347.301 37.2617C347.711 36.8125 348.004 36.4121 348.18 36.0605V18.043Z" fill="white"/>
<path d="M364.879 0.40625H370.738V32.5449C370.738 36.4121 371.617 38.6875 373.375 39.3711C373.961 39.6055 374.586 39.7227 375.25 39.7227C375.914 39.7227 376.51 39.6445 377.037 39.4883V44L375.953 44.1172C375.602 44.1562 375.26 44.1758 374.928 44.1758C371.178 44.1758 368.473 42.9453 366.812 40.4844C365.523 38.5508 364.879 35.9141 364.879 32.5742V0.40625Z" fill="white"/>
<path d="M390.484 4.97656C390.484 6.08984 390.113 6.94922 389.371 7.55469C388.648 8.14062 387.74 8.43359 386.646 8.43359C385.553 8.43359 384.645 8.14062 383.922 7.55469C383.219 6.94922 382.867 6.08984 382.867 4.97656C382.867 3.84375 383.219 2.98438 383.922 2.39844C384.645 1.8125 385.553 1.51953 386.646 1.51953C387.74 1.51953 388.648 1.8125 389.371 2.39844C390.113 2.98438 390.484 3.84375 390.484 4.97656ZM383.629 13.7656H389.488V44H383.629V13.7656Z" fill="white"/>
<path d="M412.838 44.4688C401.783 44.4688 396.256 39.0684 396.256 28.2676C396.256 23.6191 397.789 19.8984 400.855 17.1055C403.609 14.5664 406.754 13.2969 410.289 13.2969C414.137 13.2969 417.145 14.5859 419.312 17.1641C421.324 19.5664 422.33 22.7793 422.33 26.8027V29.0879H402.35C402.35 34.6152 404.605 37.9941 409.117 39.2246C410.191 39.5176 411.842 39.6641 414.068 39.6641C416.314 39.6641 418.512 39.3613 420.66 38.7559V43.707C418.512 44.2148 415.904 44.4688 412.838 44.4688ZM416.471 24.7812C416.471 22.9062 415.953 21.3242 414.918 20.0352C413.707 18.5508 412.037 17.8086 409.908 17.8086C407.662 17.8086 405.836 18.5215 404.43 19.9473C403.141 21.2754 402.496 22.8867 402.496 24.7812H416.471Z" fill="white"/>
<path d="M430.035 0.40625H435.895V32.5449C435.895 36.4121 436.773 38.6875 438.531 39.3711C439.117 39.6055 439.742 39.7227 440.406 39.7227C441.07 39.7227 441.666 39.6445 442.193 39.4883V44L441.109 44.1172C440.758 44.1562 440.416 44.1758 440.084 44.1758C436.334 44.1758 433.629 42.9453 431.969 40.4844C430.68 38.5508 430.035 35.9141 430.035 32.5742V0.40625Z" fill="white"/>
<path d="M454.791 21.2949L454.82 44H448.961V13.7656H454.352L454.762 17.0762C456.91 15.2793 459.41 14.1074 462.262 13.5605C463.18 13.3848 464.078 13.2969 464.957 13.2969C468.609 13.2969 471.363 14.8398 473.219 17.9258C476.617 14.8398 480.172 13.2969 483.883 13.2969C487.555 13.2969 490.23 14.4004 491.91 16.6074C493.59 18.8535 494.43 22.5645 494.43 27.7402V44H488.57V27.9453C488.57 22.8672 487.35 19.8301 484.908 18.834C484.088 18.502 483.131 18.3359 482.037 18.3359C479.42 18.3359 477.018 19.2734 474.83 21.1484V44H468.971V27.7109C468.971 24.2344 468.453 21.793 467.418 20.3867C466.422 19.0195 464.635 18.3359 462.057 18.3359C459.498 18.3359 457.076 19.3223 454.791 21.2949Z" fill="white"/>
<path d="M510.66 4.97656C510.66 6.08984 510.289 6.94922 509.547 7.55469C508.824 8.14062 507.916 8.43359 506.822 8.43359C505.729 8.43359 504.82 8.14062 504.098 7.55469C503.395 6.94922 503.043 6.08984 503.043 4.97656C503.043 3.84375 503.395 2.98438 504.098 2.39844C504.82 1.8125 505.729 1.51953 506.822 1.51953C507.916 1.51953 508.824 1.8125 509.547 2.39844C510.289 2.98438 510.66 3.84375 510.66 4.97656ZM503.805 13.7656H509.664V44H503.805V13.7656Z" fill="white"/>
<path d="M126.181 62.3032H130.967C134.195 62.3032 136.754 63.1009 138.642 64.6963C140.681 66.4049 141.7 68.8971 141.7 72.1729C141.7 75.4486 140.709 77.936 138.727 79.6353C136.876 81.2118 134.337 82 131.108 82H126.181V62.3032ZM138.797 72.187C138.797 67.1177 136.126 64.583 130.783 64.583H129.013V79.7344H130.938C135.017 79.7344 137.499 78.2617 138.387 75.3164C138.66 74.3818 138.797 73.3387 138.797 72.187Z" fill="white"/>
<path d="M152.363 82.2266C147.02 82.2266 144.348 79.6164 144.348 74.396C144.348 72.1493 145.089 70.3509 146.571 69.001C147.902 67.7738 149.422 67.1602 151.131 67.1602C152.991 67.1602 154.444 67.7832 155.492 69.0293C156.465 70.1904 156.951 71.7433 156.951 73.688V74.7925H147.293C147.293 77.464 148.384 79.0972 150.564 79.6919C151.084 79.8335 151.881 79.9043 152.958 79.9043C154.043 79.9043 155.105 79.758 156.144 79.4653V81.8584C155.105 82.1038 153.845 82.2266 152.363 82.2266ZM154.119 72.7109C154.119 71.8047 153.868 71.04 153.368 70.417C152.783 69.6995 151.976 69.3408 150.947 69.3408C149.861 69.3408 148.979 69.6854 148.299 70.3745C147.676 71.0164 147.364 71.7952 147.364 72.7109H154.119Z" fill="white"/>
<path d="M163.648 82.2266C162.468 82.2266 161.274 82.1416 160.066 81.9717V79.4653C161.293 79.758 162.539 79.9043 163.804 79.9043C166.334 79.9043 167.599 79.3709 167.599 78.3042C167.599 77.8983 167.5 77.5962 167.302 77.3979C167.009 77.0864 166.547 76.7749 165.914 76.4634L163.847 75.5146C162.506 74.8444 161.638 74.3063 161.241 73.9004C160.495 73.1452 160.123 72.2484 160.123 71.21C160.123 70.0394 160.665 69.0859 161.751 68.3496C162.922 67.5566 164.564 67.1602 166.679 67.1602C167.745 67.1602 168.822 67.2357 169.907 67.3867V69.8081C168.718 69.591 167.679 69.4824 166.792 69.4824C165.914 69.4824 165.23 69.5391 164.739 69.6523C164.257 69.7656 163.894 69.9072 163.648 70.0771C163.261 70.3415 163.068 70.686 163.068 71.1108C163.068 71.5262 163.2 71.866 163.464 72.1304C163.738 72.3853 164.163 72.6637 164.739 72.9658L166.82 73.9712C168.18 74.6792 169.053 75.222 169.44 75.5996C170.176 76.3171 170.544 77.2186 170.544 78.3042C170.544 79.4653 169.959 80.3999 168.789 81.1079C167.561 81.8537 165.848 82.2266 163.648 82.2266Z" fill="white"/>
<path d="M175.217 79.3945C174.906 78.8564 174.656 78.224 174.467 77.4971C174.287 76.7702 174.198 75.8215 174.198 74.6509C174.198 73.4803 174.448 72.4041 174.948 71.4224C175.458 70.4312 176.119 69.6193 176.931 68.9868C178.507 67.769 180.466 67.1602 182.807 67.1602C184.025 67.1602 184.945 67.1885 185.568 67.2451C185.568 67.2451 186.026 67.2923 186.942 67.3867V82H184.393L184.28 80.3149C183.713 81.0701 182.85 81.6318 181.688 82C181.245 82.1416 180.787 82.2124 180.315 82.2124C179.852 82.2124 179.395 82.1652 178.941 82.0708C178.488 81.9764 178.035 81.8206 177.582 81.6035C177.138 81.3864 176.714 81.0985 176.308 80.7397C175.902 80.3716 175.538 79.9232 175.217 79.3945ZM184.11 69.4683C183.506 69.3927 182.902 69.355 182.297 69.355C181.703 69.355 181.065 69.4635 180.386 69.6807C179.706 69.8883 179.125 70.2188 178.644 70.6719C177.643 71.6159 177.143 73.0555 177.143 74.9907C177.143 76.8221 177.573 78.1768 178.432 79.0547C179.083 79.7061 179.867 80.0317 180.782 80.0317C181.962 80.0317 182.935 79.6022 183.699 78.7432C183.888 78.526 184.025 78.3325 184.11 78.1626V69.4683Z" fill="white"/>
<path d="M200.762 69.978C200.243 69.827 199.62 69.7515 198.893 69.7515C198.176 69.7515 197.586 69.827 197.123 69.978C196.66 70.1196 196.255 70.2943 195.905 70.502C195.263 70.8796 194.796 71.3044 194.503 71.7764V82H191.671V67.3867H194.39L194.503 69.4116C195.211 68.5243 196.245 67.8587 197.604 67.415C198.095 67.2451 198.657 67.1602 199.29 67.1602C199.922 67.1602 200.413 67.2074 200.762 67.3018V69.978Z" fill="white"/>
<path d="M212.855 69.978C212.336 69.827 211.713 69.7515 210.986 69.7515C210.268 69.7515 209.678 69.827 209.216 69.978C208.753 70.1196 208.347 70.2943 207.998 70.502C207.356 70.8796 206.889 71.3044 206.596 71.7764V82H203.764V67.3867H206.483L206.596 69.4116C207.304 68.5243 208.338 67.8587 209.697 67.415C210.188 67.2451 210.75 67.1602 211.382 67.1602C212.015 67.1602 212.506 67.2074 212.855 67.3018V69.978Z" fill="white"/>
<path d="M214.71 74.665C214.71 72.3711 215.442 70.5114 216.905 69.0859C218.274 67.7549 219.968 67.0894 221.988 67.0894C223.971 67.0894 225.627 67.7549 226.958 69.0859C228.375 70.502 229.083 72.3617 229.083 74.665C229.083 76.959 228.37 78.8092 226.944 80.2158C225.594 81.5563 223.938 82.2266 221.974 82.2266C219.982 82.2266 218.292 81.5563 216.905 80.2158C215.442 78.8092 214.71 76.959 214.71 74.665ZM217.655 74.665C217.655 77.0817 218.429 78.7243 219.978 79.5928C220.525 79.8949 221.181 80.0459 221.946 80.0459C222.71 80.0459 223.357 79.8949 223.886 79.5928C224.414 79.2812 224.849 78.8753 225.188 78.375C225.821 77.4121 226.137 76.1755 226.137 74.665C226.137 72.2673 225.377 70.6247 223.857 69.7373C223.329 69.4258 222.696 69.27 221.96 69.27C221.224 69.27 220.582 69.4258 220.034 69.7373C219.496 70.0394 219.052 70.4406 218.703 70.9409C218.005 71.9227 217.655 73.1641 217.655 74.665Z" fill="white"/>
<path d="M233.175 60.9297H236.007V76.4634C236.007 78.3325 236.432 79.4323 237.281 79.7627C237.564 79.876 237.867 79.9326 238.188 79.9326C238.508 79.9326 238.796 79.8949 239.051 79.8193V82L238.527 82.0566C238.357 82.0755 238.192 82.085 238.032 82.085C236.219 82.085 234.912 81.4902 234.109 80.3008C233.486 79.3662 233.175 78.0918 233.175 76.4775V60.9297Z" fill="white"/>
<path d="M242.86 60.9297H245.692V76.4634C245.692 78.3325 246.117 79.4323 246.967 79.7627C247.25 79.876 247.552 79.9326 247.873 79.9326C248.194 79.9326 248.482 79.8949 248.737 79.8193V82L248.213 82.0566C248.043 82.0755 247.878 82.085 247.717 82.085C245.905 82.085 244.597 81.4902 243.795 80.3008C243.172 79.3662 242.86 78.0918 242.86 76.4775V60.9297Z" fill="white"/>
<path d="M252.588 79.3945C252.277 78.8564 252.027 78.224 251.838 77.4971C251.659 76.7702 251.569 75.8215 251.569 74.6509C251.569 73.4803 251.819 72.4041 252.319 71.4224C252.829 70.4312 253.49 69.6193 254.302 68.9868C255.878 67.769 257.837 67.1602 260.178 67.1602C261.396 67.1602 262.316 67.1885 262.939 67.2451C262.939 67.2451 263.397 67.2923 264.313 67.3867V82H261.764L261.651 80.3149C261.084 81.0701 260.221 81.6318 259.06 82C258.616 82.1416 258.158 82.2124 257.686 82.2124C257.223 82.2124 256.766 82.1652 256.312 82.0708C255.859 81.9764 255.406 81.8206 254.953 81.6035C254.509 81.3864 254.085 81.0985 253.679 80.7397C253.273 80.3716 252.909 79.9232 252.588 79.3945ZM261.481 69.4683C260.877 69.3927 260.273 69.355 259.668 69.355C259.074 69.355 258.437 69.4635 257.757 69.6807C257.077 69.8883 256.497 70.2188 256.015 70.6719C255.014 71.6159 254.514 73.0555 254.514 74.9907C254.514 76.8221 254.944 78.1768 255.803 79.0547C256.454 79.7061 257.238 80.0317 258.153 80.0317C259.333 80.0317 260.306 79.6022 261.07 78.7432C261.259 78.526 261.396 78.3325 261.481 78.1626V69.4683Z" fill="white"/>
<path d="M271.053 68.9868C271.875 68.3543 272.795 67.8918 273.814 67.5991C274.843 67.3065 275.74 67.1602 276.505 67.1602C277.27 67.1602 277.86 67.179 278.275 67.2168V60.9297H281.093V82H278.558L278.445 80.3149C277.869 81.0796 276.996 81.646 275.825 82.0142C275.372 82.1558 274.91 82.2266 274.438 82.2266C273.975 82.2266 273.517 82.1794 273.064 82.085C272.611 81.9906 272.158 81.8348 271.705 81.6177C271.261 81.3911 270.836 81.0985 270.43 80.7397C270.024 80.3716 269.661 79.9232 269.34 79.3945C268.66 78.2334 268.32 76.8599 268.32 75.2739C268.32 73.688 268.57 72.4041 269.071 71.4224C269.581 70.4312 270.241 69.6193 271.053 68.9868ZM272.767 70.6719C272.285 71.125 271.912 71.7103 271.648 72.4277C271.393 73.1357 271.266 73.9995 271.266 75.019C271.266 76.0291 271.388 76.8646 271.634 77.5254C271.879 78.1768 272.186 78.6865 272.554 79.0547C273.206 79.7155 273.989 80.0459 274.905 80.0459C276.085 80.0459 277.062 79.6117 277.836 78.7432C278.034 78.526 278.176 78.3325 278.261 78.1626V69.4541L277.978 69.4258C277.543 69.3691 277.024 69.3408 276.42 69.3408C275.825 69.3408 275.188 69.4494 274.508 69.6665C273.829 69.8742 273.248 70.2093 272.767 70.6719Z" fill="white"/>
<path d="M284.803 74.665C284.803 72.3711 285.534 70.5114 286.998 69.0859C288.366 67.7549 290.061 67.0894 292.081 67.0894C294.063 67.0894 295.72 67.7549 297.051 69.0859C298.467 70.502 299.175 72.3617 299.175 74.665C299.175 76.959 298.463 78.8092 297.037 80.2158C295.687 81.5563 294.03 82.2266 292.067 82.2266C290.075 82.2266 288.385 81.5563 286.998 80.2158C285.534 78.8092 284.803 76.959 284.803 74.665ZM287.748 74.665C287.748 77.0817 288.522 78.7243 290.07 79.5928C290.618 79.8949 291.274 80.0459 292.039 80.0459C292.803 80.0459 293.45 79.8949 293.979 79.5928C294.507 79.2812 294.941 78.8753 295.281 78.375C295.914 77.4121 296.23 76.1755 296.23 74.665C296.23 72.2673 295.47 70.6247 293.95 69.7373C293.422 69.4258 292.789 69.27 292.053 69.27C291.316 69.27 290.674 69.4258 290.127 69.7373C289.589 70.0394 289.145 70.4406 288.796 70.9409C288.097 71.9227 287.748 73.1641 287.748 74.665Z" fill="white"/>
<path d="M311.948 69.978C311.429 69.827 310.806 69.7515 310.079 69.7515C309.361 69.7515 308.771 69.827 308.309 69.978C307.846 70.1196 307.44 70.2943 307.091 70.502C306.449 70.8796 305.982 71.3044 305.689 71.7764V82H302.857V67.3867H305.576L305.689 69.4116C306.397 68.5243 307.431 67.8587 308.79 67.415C309.281 67.2451 309.843 67.1602 310.475 67.1602C311.108 67.1602 311.598 67.2074 311.948 67.3018V69.978Z" fill="white"/>
<path d="M322.242 62.2891H325.188L328.997 76.1943L329.549 78.644L330.172 76.1943L334.165 62.2891H336.884L340.834 76.1943L341.472 78.7432L342.081 76.1943L345.918 62.2891H348.75L342.774 82H340.056L335.907 68.123L335.439 66.353L334.986 68.123L330.88 82H328.161L322.242 62.2891Z" fill="white"/>
<path d="M357.827 82.2266C352.484 82.2266 349.812 79.6164 349.812 74.396C349.812 72.1493 350.553 70.3509 352.035 69.001C353.366 67.7738 354.886 67.1602 356.595 67.1602C358.454 67.1602 359.908 67.7832 360.956 69.0293C361.928 70.1904 362.415 71.7433 362.415 73.688V74.7925H352.757C352.757 77.464 353.848 79.0972 356.028 79.6919C356.548 79.8335 357.345 79.9043 358.421 79.9043C359.507 79.9043 360.569 79.758 361.607 79.4653V81.8584C360.569 82.1038 359.309 82.2266 357.827 82.2266ZM359.583 72.7109C359.583 71.8047 359.332 71.04 358.832 70.417C358.247 69.6995 357.44 69.3408 356.411 69.3408C355.325 69.3408 354.442 69.6854 353.763 70.3745C353.14 71.0164 352.828 71.7952 352.828 72.7109H359.583Z" fill="white"/>
<path d="M375.753 80.3716C374.942 81.0041 374.021 81.4714 372.992 81.7734C371.973 82.0661 370.868 82.2124 369.679 82.2124C368.499 82.2124 367.177 82.1416 365.714 82V60.9297H368.546V68.8452C369.169 68.1372 370.033 67.6322 371.137 67.3301C371.553 67.2168 371.977 67.1602 372.412 67.1602C372.855 67.1602 373.304 67.2074 373.757 67.3018C374.21 67.3867 374.658 67.5378 375.102 67.7549C375.555 67.972 375.985 68.2599 376.391 68.6187C376.797 68.9774 377.155 69.4258 377.467 69.9639C378.156 71.1156 378.5 72.4844 378.5 74.0703C378.5 75.6468 378.246 76.9307 377.736 77.9219C377.236 78.9131 376.575 79.7297 375.753 80.3716ZM368.56 79.9185C368.824 79.994 369.344 80.0317 370.118 80.0317C370.892 80.0317 371.619 79.9232 372.298 79.7061C372.978 79.4889 373.559 79.1491 374.04 78.6865C375.05 77.7142 375.555 76.2651 375.555 74.3394C375.555 71.9888 374.871 70.45 373.502 69.7231C373.011 69.4683 372.511 69.3408 372.001 69.3408C371.491 69.3408 371.048 69.4069 370.67 69.5391C370.292 69.6712 369.962 69.8317 369.679 70.0205C369.141 70.3887 368.768 70.7852 368.56 71.21V79.9185Z" fill="white"/>
</svg>
